HIERARCHY
ROOT Hips
{
  OFFSET 0.0000 0.0000 0.0000
  CHANNELS 6 Xposition Yposition Zposition Zrotation Xrotation Yrotation
  JOINT LeftHip
  {
    OFFSET 3.4300 0.0000 0.0000
    CHANNELS 3 Zrotation Xrotation Yrotation
    JOINT LeftKnee
    {
      OFFSET 0.0000 -18.4700 0.0000
      CHANNELS 3 Zrotation Xrotation Yrotation
      JOINT LeftAnkle
      {
        OFFSET 0.0000 -17.9500 0.0000
        CHANNELS 3 Zrotation Xrotation Yrotation
        End Site
        {
            OFFSET -0.0000 -3.1200 0.0000
        }
      }
    }
  }
  JOINT RightHip
  {
    OFFSET -3.4300 0.0000 0.0000
    CHANNELS 3 Zrotation Xrotation Yrotation
    JOINT RightKnee
    {
      OFFSET 0.0000 -18.4700 -0.0000
      CHANNELS 3 Zrotation Xrotation Yrotation
      JOINT RightAnkle
      {
        OFFSET 0.0000 -17.9500 0.0000
        CHANNELS 3 Zrotation Xrotation Yrotation
        End Site
        {
            OFFSET 0.0000 -3.1200 0.0000
        }
      }
    }
  }
  JOINT Chest
  {
    OFFSET -0.0000 4.5700 0.0000
    CHANNELS 3 Zrotation Xrotation Yrotation
    JOINT Chest2
    {
      OFFSET 0.0000 6.5700 0.0000
      CHANNELS 3 Zrotation Xrotation Yrotation
      JOINT LeftCollar
      {
        OFFSET 1.0600 4.1900 1.7600
        CHANNELS 3 Zrotation Xrotation Yrotation
        JOINT LeftShoulder
        {
          OFFSET 5.8100 0.0000 0.0000
          CHANNELS 3 Zrotation Xrotation Yrotation
          JOINT LeftElbow
          {
            OFFSET 0.0000 -12.0800 -0.0000
            CHANNELS 3 Zrotation Xrotation Yrotation
            JOINT LeftWrist
            {
              OFFSET -0.0000 -9.8200 0.0000
              CHANNELS 3 Zrotation Xrotation Yrotation
              End Site
              {
                  OFFSET 0.0000 -7.3700 0.0000
              }
            }
          }
        }
      }
      JOINT RightCollar
      {
        OFFSET -1.0600 4.1900 1.7600
        CHANNELS 3 Zrotation Xrotation Yrotation
        JOINT RightShoulder
        {
          OFFSET -6.0600 -0.0000 0.0000
          CHANNELS 3 Zrotation Xrotation Yrotation
          JOINT RightElbow
          {
            OFFSET -0.0000 -11.0800 -0.0000
            CHANNELS 3 Zrotation Xrotation Yrotation
            JOINT RightWrist
            {
              OFFSET 0.0000 -9.8200 0.0000
              CHANNELS 3 Zrotation Xrotation Yrotation
              End Site
              {
                  OFFSET -0.0000 -7.1400 0.0000
              }
            }
          }
        }
      }
    }
    JOINT Neck
    {
      OFFSET 0.0000 10.6200 0.0000
      CHANNELS 3 Zrotation Xrotation Yrotation
      JOINT Head
      {
        OFFSET 0.0000 5.1900 0.0000
        CHANNELS 3 Zrotation Xrotation Yrotation
        End Site
        {
            OFFSET 0.0000 4.1400 0.0000
        }
      }
    }
  }
}
MOTION
Frames:	24
Frame Time:	0.033333
47.5150 41.9530 4.5982 -22.96 7.89 25.86 5.85 -30.86 -13.84 0.13 22.26 22.92 4.26 -10.55 0.19 7.61 -62.29 12.89 179.61 51.43 -167.13 19.29 -14.70 2.78 12.13 12.62 -11.20 0.00 0.00 0.00 -6.78 1.35 -5.81 46.88 -59.65 -26.00 16.69 -63.08 -3.32 19.92 -15.45 3.03 -2.17 0.02 -3.19 -34.64 -6.80 -23.42 119.63 -83.12 135.89 -27.88 1.31 -0.10 21.73 5.26 -34.15 -0.70 -19.12 -27.84 
47.4191 42.0449 4.6245 -22.99 7.73 25.97 5.50 -30.68 -15.33 0.77 22.44 20.35 3.81 -10.19 0.20 8.35 -62.47 13.29 179.89 51.63 -167.98 19.54 -14.99 2.77 11.96 12.83 -11.04 0.00 0.00 0.00 -6.90 1.33 -5.65 45.08 -59.00 -29.27 18.37 -60.47 -1.44 20.26 -15.87 3.16 -2.66 0.02 -3.17 -34.32 -8.20 -22.87 115.91 -83.35 132.17 -27.65 1.37 -0.09 21.32 5.65 -34.12 -0.32 -18.96 -27.91 
47.3061 42.1903 4.6930 -23.05 7.24 26.10 5.93 -30.45 -15.40 0.22 22.61 19.42 3.98 -9.97 0.17 9.59 -62.84 14.49 -179.98 52.31 -168.37 19.93 -14.64 2.57 11.91 13.07 -10.99 0.00 0.00 0.00 -6.83 1.21 -4.81 43.90 -56.95 -30.40 17.79 -60.74 -2.29 20.58 -15.35 3.11 -3.90 0.02 -3.02 -33.21 -8.64 -21.74 116.15 -83.72 132.51 -27.77 0.66 -0.27 20.03 5.95 -33.87 0.45 -18.05 -28.05 
47.1132 42.2236 4.9099 -23.23 6.42 26.31 7.19 -29.36 -14.31 -0.00 21.88 18.05 3.78 -9.27 0.11 11.65 -63.50 16.58 -179.89 52.15 -168.39 20.72 -15.15 2.59 11.92 13.42 -11.11 0.00 0.00 0.00 -7.48 1.19 -4.36 47.02 -52.67 -25.40 14.62 -65.35 -6.39 20.02 -13.66 2.72 -5.04 0.02 -2.89 -32.04 -9.08 -19.63 120.09 -83.87 137.19 -28.52 0.84 -0.23 19.71 6.73 -33.88 1.00 -17.68 -28.13 
46.8799 42.2815 5.2172 -23.24 5.68 26.83 9.13 -28.87 -4.39 1.25 21.75 7.31 4.39 -8.83 0.12 11.41 -63.79 15.35 -179.58 52.37 -169.56 20.14 -14.99 2.49 11.13 13.45 -11.17 0.00 0.00 0.00 -6.53 0.91 -2.87 46.59 -50.66 -26.24 13.46 -64.92 -7.24 20.68 -14.03 2.88 -4.96 0.03 -2.87 -31.74 -8.82 -19.01 122.72 -83.80 139.77 -28.47 0.78 -0.24 21.91 7.92 -34.66 0.27 -18.57 -28.03 
46.8196 42.3306 5.3983 -23.18 4.84 28.08 10.57 -28.60 0.16 -0.07 22.07 1.90 5.90 -8.31 -0.00 4.76 -64.49 9.69 179.32 52.38 -166.04 18.98 -14.93 2.43 10.43 13.42 -11.69 0.00 0.00 0.00 -5.78 0.72 -1.79 47.78 -48.49 -25.77 11.93 -65.43 -8.41 20.97 -13.62 2.85 -4.17 0.03 -2.94 -31.70 -8.19 -19.23 122.54 -83.81 139.65 -28.19 0.24 -0.37 23.09 8.88 -35.30 0.32 -18.92 -28.19 
46.7288 42.2765 5.6074 -23.20 4.13 29.05 11.18 -27.92 -0.44 -1.19 21.90 1.75 6.45 -7.81 -0.09 -0.04 -65.23 5.41 178.44 51.78 -163.07 17.66 -15.16 2.34 10.14 13.59 -11.73 0.00 0.00 0.00 -5.90 0.71 -1.72 48.70 -47.23 -26.50 15.09 -62.53 -5.00 20.68 -14.31 2.93 -4.03 0.03 -2.94 -32.18 -7.97 -19.48 121.70 -83.72 138.55 -28.38 0.28 -0.37 23.48 9.14 -35.79 0.40 -18.88 -28.53 
46.7324 42.2510 5.7241 -23.24 3.29 30.18 11.14 -27.31 -2.01 -1.50 21.80 2.08 6.69 -7.66 -0.12 -2.55 -65.37 3.19 177.68 51.56 -160.50 16.91 -15.20 2.26 10.18 13.88 -11.84 0.00 0.00 0.00 -4.48 0.49 -0.45 46.09 -47.24 -30.55 17.49 -57.46 -1.87 21.26 -16.66 3.46 -3.19 0.03 -3.06 -33.80 -7.98 -19.74 123.35 -83.36 139.63 -28.58 0.81 -0.23 24.08 9.98 -36.33 0.19 -19.69 -28.81 
46.6754 42.1533 5.8733 -23.32 2.36 31.88 9.74 -27.48 -9.22 -1.38 23.12 6.78 5.73 -8.24 -0.02 -3.71 -65.51 1.17 177.10 51.49 -158.50 16.42 -14.85 2.12 10.64 14.33 -12.79 0.00 0.00 0.00 -5.38 0.59 -0.96 50.18 -44.88 -27.64 16.70 -60.05 -2.60 21.20 -15.40 3.22 -4.68 0.03 -2.83 -31.64 -7.71 -20.27 125.14 -83.16 141.72 -28.06 0.60 -0.28 21.62 9.59 -35.81 1.48 -17.97 -29.23 
46.4698 42.0392 6.1180 -22.98 1.59 33.80 7.00 -26.95 -17.50 0.70 24.08 11.44 3.64 -8.23 0.06 -4.00 -65.83 -0.32 176.83 50.96 -157.24 15.96 -15.42 2.13 10.45 14.78 -13.36 0.00 0.00 0.00 -7.34 0.91 -2.61 55.09 -43.48 -26.01 18.38 -60.34 -0.73 21.17 -14.50 3.04 -3.88 0.02 -3.01 -31.12 -8.53 -20.07 126.57 -82.84 144.27 -27.47 0.87 -0.21 21.98 10.10 -36.29 1.70 -18.25 -29.57 
46.4111 41.9051 6.2174 -22.49 0.64 36.63 5.48 -26.68 -20.70 1.15 24.83 11.31 3.88 -8.16 0.08 -5.53 -65.72 -3.22 176.15 51.37 -155.22 15.13 -15.48 2.13 10.29 15.67 -14.35 0.00 0.00 0.00 -7.41 1.02 -3.30 56.38 -44.81 -27.98 19.88 -56.46 1.35 22.38 -15.11 3.34 -1.94 0.01 -3.30 -32.24 -9.30 -19.25 129.83 -82.34 147.52 -27.73 1.37 -0.09 24.12 9.55 -37.24 0.27 -18.87 -29.79 
46.2759 41.7213 6.3507 -21.73 -0.21 39.41 3.89 -27.33 -23.62 0.68 27.29 11.09 4.32 -9.00 0.14 -4.02 -65.90 -2.96 176.00 52.50 -154.89 15.91 -15.67 2.28 10.05 17.33 -15.23 0.00 0.00 0.00 -6.87 1.04 -3.63 57.41 -46.86 -29.17 20.31 -51.94 2.41 23.90 -16.41 3.85 -0.83 0.00 -3.46 -32.45 -11.17 -18.46 121.01 -83.09 138.09 -27.62 1.01 -0.18 23.97 7.64 -37.32 -0.05 -17.61 -30.10 
46.0987 41.5441 6.4878 -20.70 -0.99 41.69 2.43 -27.54 -24.70 0.98 29.39 9.42 4.45 -9.73 0.18 -0.23 -66.55 -0.47 176.75 53.28 -156.71 17.38 -17.70 2.81 9.57 19.16 -15.14 0.00 0.00 0.00 -7.55 1.37 -5.51 59.95 -48.96 -28.48 21.99 -46.71 3.25 24.41 -17.04 4.08 1.68 -0.01 -3.58 -34.62 -14.31 -17.26 104.62 -83.68 121.49 -27.89 0.64 -0.27 26.36 8.24 -38.35 -0.71 -19.89 -30.34 
46.0413 41.1997 6.4736 -20.01 -2.05 44.04 0.26 -28.15 -26.16 2.56 32.89 7.26 4.15 -10.97 0.22 1.48 -66.77 -0.77 177.25 54.97 -158.01 17.97 -19.14 3.22 9.88 21.52 -15.48 0.00 0.00 0.00 -7.19 1.46 -6.33 61.35 -51.60 -27.13 22.53 -43.17 2.47 24.54 -16.81 4.05 5.52 0.02 -3.33 -38.51 -18.03 -17.70 94.22 -83.46 110.24 -27.41 0.92 -0.20 28.66 7.00 -38.89 -2.43 -21.10 -30.30 
45.9376 40.9240 6.5194 -19.37 -3.37 46.01 -1.17 -28.28 -27.33 4.22 35.86 5.19 3.70 -12.04 0.26 3.83 -67.27 -0.44 177.77 56.46 -159.21 18.38 -20.80 3.70 10.49 24.63 -16.17 0.00 0.00 0.00 -6.77 1.52 -6.98 66.82 -52.02 -21.12 22.59 -44.71 1.72 24.03 -14.82 3.53 6.63 0.12 -2.64 -38.87 -22.85 -16.40 72.07 -83.07 88.31 -27.67 0.39 -0.33 25.58 3.17 -37.59 -1.40 -17.23 -30.33 
45.7527 40.7232 6.5860 -19.18 -4.74 47.81 -0.83 -29.19 -26.47 4.43 38.48 2.19 4.26 -13.10 0.30 7.47 -68.45 0.96 178.79 57.59 -162.46 17.98 -21.26 3.78 11.25 26.80 -16.81 0.00 0.00 0.00 -6.70 1.70 -8.30 70.90 -52.66 -17.56 25.14 -40.24 3.47 22.43 -16.08 3.54 8.49 0.32 -1.49 -39.53 -28.04 -13.67 63.81 -83.01 82.30 -28.04 0.91 -0.20 26.08 2.35 -37.43 -1.46 -17.15 -30.11 
45.7647 40.5619 6.3483 -19.65 -6.11 50.31 -1.28 -30.24 -28.04 4.31 40.32 0.70 5.08 -13.36 0.33 3.51 -69.06 -2.61 178.68 58.82 -163.47 16.78 -20.23 3.42 12.94 28.44 -18.45 0.00 0.00 0.00 -6.36 1.84 -9.51 74.33 -53.72 -15.37 26.25 -34.46 4.87 21.57 -18.02 3.78 9.86 0.61 0.04 -41.09 -33.40 -14.09 51.21 -81.36 70.19 -27.73 0.86 -0.21 27.02 2.73 -37.37 -1.14 -18.25 -29.79 
45.6958 40.7468 6.2117 -21.10 -7.03 51.99 0.18 -31.08 -28.20 3.89 39.14 -0.66 5.75 -12.28 0.25 -0.56 -68.65 -3.28 178.72 59.38 -164.97 17.13 -19.93 3.45 14.06 30.11 -19.36 0.00 0.00 0.00 -5.73 1.87 -10.26 79.87 -52.98 -9.93 26.30 -34.23 4.65 20.87 -16.99 3.46 10.80 0.95 1.78 -40.44 -38.91 -11.39 42.02 -79.75 62.14 -28.61 1.15 -0.15 29.82 -0.75 -37.02 -3.32 -17.36 -28.98 
45.6196 40.9337 6.1764 -24.21 -7.54 52.09 3.27 -33.58 -26.16 3.74 38.47 -2.71 6.42 -11.65 0.25 -7.26 -67.51 -6.28 -179.57 57.97 -169.20 17.80 -21.12 4.22 14.18 30.88 -18.58 0.00 0.00 0.00 -4.16 1.44 -8.30 83.39 -53.85 -5.31 25.95 -32.99 3.33 20.63 -17.25 3.47 11.42 1.31 3.55 -39.93 -43.96 -9.89 36.04 -78.20 56.23 -28.88 0.80 -0.24 36.36 -4.01 -36.70 -7.73 -18.12 -27.38 
45.6275 41.2906 6.0459 -29.15 -8.21 51.12 7.73 -36.61 -24.13 4.21 36.92 -3.86 6.83 -10.16 0.21 -16.94 -63.80 -10.55 -179.24 57.73 -170.96 18.24 -20.34 4.62 15.33 30.50 -17.33 0.00 0.00 0.00 -2.56 0.86 -4.55 86.03 -53.44 -0.41 23.94 -35.20 1.41 22.06 -16.77 3.62 8.24 1.02 2.94 -31.45 -50.84 -4.09 30.39 -76.59 51.31 -27.59 -0.19 -0.47 36.48 -3.80 -35.39 -6.32 -17.51 -25.91 
45.5510 41.9342 6.1118 -35.06 -8.65 49.66 14.56 -38.98 -20.88 4.06 32.76 -3.93 8.01 -6.26 -0.04 -25.92 -56.46 -13.12 -179.51 59.45 -170.66 18.31 -18.85 4.78 16.30 28.94 -15.75 0.00 0.00 0.00 -2.81 0.77 -3.53 88.57 -45.26 7.17 22.56 -47.22 -2.82 21.95 -11.87 2.64 7.54 1.09 3.68 -23.87 -56.65 5.82 26.16 -74.85 47.80 -27.96 -0.04 -0.44 32.44 3.40 -33.61 1.32 -19.20 -24.07 
45.5112 42.7133 6.4056 -42.14 -8.50 48.42 23.03 -41.37 -16.19 3.20 27.02 -3.99 9.37 -1.61 -0.35 -32.52 -46.81 -14.21 179.47 64.79 -168.27 17.61 -15.80 4.27 17.15 25.86 -13.90 0.00 0.00 0.00 -3.13 0.60 -1.84 90.78 -34.40 14.28 17.30 -60.46 -8.87 23.02 -7.66 1.91 6.41 1.00 3.54 -13.03 -60.62 18.59 25.53 -74.52 46.82 -28.13 0.54 -0.30 31.92 11.60 -32.20 6.99 -23.18 -21.16 
45.4492 43.5228 6.7323 -49.11 -7.89 48.12 28.69 -44.34 -11.18 4.77 21.32 -4.98 8.65 2.83 -0.22 -35.85 -36.05 -13.55 178.30 73.46 -166.58 18.19 -11.90 3.55 18.08 22.46 -12.89 0.00 0.00 0.00 -3.12 0.32 0.67 92.43 -23.71 19.42 9.11 -68.97 -15.73 25.32 -6.59 1.87 6.82 1.23 4.97 -5.95 -63.60 29.09 23.74 -73.43 43.21 -28.54 0.25 -0.38 25.44 13.90 -28.40 13.81 -21.09 -19.63 
44.8933 43.9703 7.4553 -55.67 -6.96 48.09 37.40 -45.78 1.37 4.57 12.65 -6.38 6.27 8.60 -0.24 -37.26 -25.38 -11.45 174.77 82.42 -162.88 20.16 -9.99 3.35 18.78 19.06 -11.88 0.00 0.00 0.00 -3.78 0.11 2.57 93.72 -15.50 23.63 11.57 -69.49 -12.82 25.04 -9.28 2.45 8.17 1.81 7.97 -4.66 -66.33 35.56 29.74 -76.14 47.70 -28.65 3.67 0.50 24.27 14.12 -26.27 15.89 -20.49 -17.94 
